<?xml version="1.0" encoding="UTF-8" standalone="no"?><!DOCTYPE svg PUBLIC "-//W3C//DTD SVG 1.1//EN" "http://www.w3.org/Graphics/SVG/1.1/DTD/svg11.dtd"><svg width="100%" height="100%" viewBox="0 0 3477 1306" version="1.1" xmlns="http://www.w3.org/2000/svg" xmlns:xlink="http://www.w3.org/1999/xlink" xml:space="preserve" xmlns:serif="http://www.serif.com/" style="fill-rule:evenodd;clip-rule:evenodd;stroke-linejoin:round;stroke-miterlimit:2;"><g><text x="1483.19px" y="763.29px" style="font-family:'Amsterdam-1', 'Amsterdam';font-size:208.812px;fill-opacity:0.03;">Elizabet Ruiz</text><path d="M1371.03,0c-216.656,0 -228.505,292.402 -228.505,379.149c0,316.945 -22.85,381.265 -330.063,384.227l0,-524.715c0,-113.83 27.082,-174.341 162.493,-174.341l0,-59.242l-546.72,0l0,59.242c140.912,0 172.649,60.511 172.649,174.341l0,524.715c-312.502,-2.327 -335.141,-65.801 -335.141,-379.149c0,-86.747 -11.849,-379.149 -228.505,-379.149l-37.238,0l0,64.32c70.456,0 108.328,49.721 108.328,147.259l0,221.734c0,417.022 297.268,433.313 362.223,433.313l130.333,0l0,238.661c0,92.037 -27.082,135.411 -162.493,135.411l0,59.242l546.72,0l0,-59.242c-140.912,0 -172.649,-43.374 -172.649,-135.411l0,-238.661l125.255,0c64.955,0 362.223,-16.291 362.223,-433.313l0,-221.734c0,-97.538 37.872,-147.259 108.328,-147.259l0,-64.32c0,0 6.136,0.423 -37.238,-5.078Z" style="fill-opacity:0.03;fill-rule:nonzero;"/></g></svg>