<?xml version="1.0" encoding="UTF-8" standalone="no"?><!DOCTYPE svg PUBLIC "-//W3C//DTD SVG 1.1//EN" "http://www.w3.org/Graphics/SVG/1.1/DTD/svg11.dtd"><svg width="100%" height="100%" viewBox="0 0 3840 2160" version="1.1" xmlns="http://www.w3.org/2000/svg" xmlns:xlink="http://www.w3.org/1999/xlink" xml:space="preserve" xmlns:serif="http://www.serif.com/" style="fill-rule:evenodd;clip-rule:evenodd;stroke-linejoin:round;stroke-miterlimit:2;"><path d="M3507.7,768.438c-103.449,0 -109.107,139.617 -109.107,181.037c0,151.336 -10.911,182.048 -157.599,183.462l0,-250.542c0,-54.352 12.931,-83.245 77.587,-83.245l0,-28.287l-261.049,0l0,28.287c67.283,0 82.437,28.893 82.437,83.245l0,250.542c-149.215,-1.111 -160.024,-31.419 -160.024,-181.037c0,-41.42 -5.658,-181.037 -109.108,-181.037l-17.78,0l0,30.711c33.641,0 51.725,23.741 51.725,70.314l0,105.874c0,199.121 141.94,206.9 172.955,206.9l62.232,0l0,113.957c0,43.946 -12.932,64.656 -77.588,64.656l0,28.287l261.049,0l0,-28.287c-67.282,0 -82.436,-20.71 -82.436,-64.656l0,-113.957l59.807,0c31.014,0 172.955,-7.779 172.955,-206.9l0,-105.874c0,-46.573 18.083,-70.314 51.725,-70.314l0,-30.711c0,0 2.93,0.202 -17.781,-2.425Z" style="fill-rule:nonzero;"/><text x="-2.005px" y="1240.44px" style="font-family:'Amsterdam-1', 'Amsterdam';font-size:399.64px;fill-opacity:0.03;">Elizabet Ruiz</text></svg>